<?xml version="1.0" encoding="UTF-8"?>
<!DOCTYPE svg PUBLIC "-//W3C//DTD SVG 1.1//EN" "http://www.w3.org/Graphics/SVG/1.1/DTD/svg11.dtd">
<!-- Creator: CorelDRAW (Evaluation Version) -->
<svg xmlns="http://www.w3.org/2000/svg" xml:space="preserve" width="2in" height="1in" version="1.1" style="shape-rendering:geometricPrecision; text-rendering:geometricPrecision; image-rendering:optimizeQuality; fill-rule:evenodd; clip-rule:evenodd"
viewBox="0 0 2000 1000"
 xmlns:xlink="http://www.w3.org/1999/xlink"
 xmlns:xodm="http://www.corel.com/coreldraw/odm/2003">
 <defs>
  <style type="text/css">
   <![CDATA[
    .fil1 {fill:#3490CD;fill-rule:nonzero}
    .fil0 {fill:#2F5287;fill-rule:nonzero}
   ]]>
  </style>
 </defs>
 <g id="Layer_x0020_1">
  <metadata id="CorelCorpID_0Corel-Layer"/>
  <path class="fil0" d="M366.7 866.46l-53.95 0 26.57 -74.12 27.38 74.12zm97.89 96.44l-2.82 -1.54c-13.49,-7.4 -19.17,-27.22 -25.33,-43.95l-70.36 -188.51 -67.08 -0.06 0 6.16 3.88 1.33c0,0 3.06,1.04 4.88,2.28 3.96,2.69 6.79,6.94 2.41,19.13 -1.8,5.33 -3.31,9.25 -3.31,9.25 0,0 -55.54,150.06 -55.56,150.14 -5.87,16.68 -10.93,36.81 -24.65,44.2l-4.63 1.81 0 5.93 75.46 0 0 -5.93 -5.49 -2.21c-6.6,-2.67 -8.38,-9.13 -1.28,-29.52l8.67 -27.21 80.2 0c1.98,5.61 4.54,13.61 8.46,25.24 3.83,11.42 9.37,27.28 1.24,31.73l-4.96 1.98 0 5.93 80.8 0 -0.54 -6.17z"/>
  <path class="fil0" d="M954.74 728.81l0 5.93 5.52 2.22c8.76,3.52 8.53,25.79 8.35,39.08 0,0.07 -0.03,145.52 -0.03,145.59 0.13,12.06 0.34,36.03 -8.24,39.35l-5.61 2.18 0 5.89 77.26 0 0 -5.78 -5.46 -2.24c-8.71,-3.57 -8.52,-27.41 -8.39,-39.47 0,0 0,-144.81 0,-144.89 -0.31,-20.15 2.52,-37.33 8.39,-39.72l5.46 -2.24 0 -5.89 -77.26 0z"/>
  <path class="fil0" d="M666.13 728.81l0 5.93 5.51 2.22c8.77,3.52 8.54,25.79 8.36,39.08 0,0.07 -0.02,145.52 -0.02,145.59 0.14,12.06 0.33,36.03 -8.24,39.35l-5.61 2.18 0 5.86 77.25 0 0 -5.74 -5.46 -2.24c-8.72,-3.57 -8.53,-27.41 -8.39,-39.47 0,0 0,-144.81 0,-144.89 -0.3,-20.15 2.52,-37.33 8.39,-39.72l5.46 -2.24 0 -5.89 -77.25 0z"/>
  <path class="fil0" d="M1513.04 776.04l0 0c0,-0.02 0,-0.02 0,-0.02 0.2,-13.27 0.43,-35.54 -8.33,-39.06l-5.53 -2.22 0 -5.93 77.26 0 0 5.89 -5.47 2.24c-5.86,2.4 -8.7,19.57 -8.39,39.72 0,0.08 0,144.89 0,144.89 -0.14,12.05 -0.33,35.91 8.39,39.47l5.47 2.24 0 5.81 -77.26 0 0 -5.93 5.62 -2.18c8.57,-3.32 8.36,-27.28 8.22,-39.35 0,-0.07 0.01,-145.52 0.01,-145.59z"/>
  <path class="fil0" d="M146.78 838.24l-8.01 0.62 -4.95 0.03 0 -107.71c5.96,-0.66 13.3,-1.01 21.94,-1.01 18.62,0 33.2,4.73 42.16,13.7 7.71,7.7 11.62,18.91 11.62,33.28 0,36.82 -32.31,58.96 -62.75,61.09zm89.33 -129.67c-17.48,-17.47 -43.61,-27.1 -73.6,-27.1l-98.66 0 0 0 0 6.28 5.06 1.68c12.61,5.91 11.94,37.35 11.94,60.06 0,26.38 -0,150.54 0,151.81 0,0 0.04,5.92 0.04,5.93 0.17,17 0.43,48.43 -11.99,53.56l-5.43 2.25 0 5.96 90.46 0 0 -5.88 -3.94 -1.95c-16.17,-10.71 -16.16,-33.85 -16.16,-57.97l0 -50.59 9.69 3.46c0,0 15.14,5.35 28.92,5.35 42.07,0 87.35,-28.81 87.35,-92.07 0,-24.28 -8.19,-45.3 -23.67,-60.79z"/>
  <path class="fil0" d="M641.54 904.27l-1.51 1.11c-2.51,1.85 -5.15,3.61 -5.07,3.54 -14.46,9.11 -36.74,19.98 -60.76,19.98 -18.77,0 -34.25,-5.98 -46.04,-17.77 -14.96,-14.96 -23.21,-38.95 -23.21,-67.56 0,-43.86 25.95,-74.5 63.11,-74.5 17.37,0 35.28,6.12 51.79,17.7l4.81 3.37 9.02 6.33 0 -11.02 0 -47.19 0 -4.42 -6.57 -1.72c-22.82,-5.97 -41.3,-8.75 -58.14,-8.75 -32.25,0 -60.44,11.15 -81.53,32.22 -22.63,22.64 -35.1,55.68 -35.1,93.03 0,37.87 11.76,69.65 34,91.89 22.28,22.28 54.14,34.06 92.16,34.06 19.13,0 36.09,-3.74 50.42,-11.13l1.01 -0.52 1.91 -0.99 0.79 -2 16.41 -55.67 -7.5 0z"/>
  <path class="fil0" d="M1233.86 904.27c0,0 -6.68,4.72 -6.6,4.65 -14.46,9.11 -36.74,19.98 -60.75,19.98 -18.76,0 -34.25,-5.98 -46.04,-17.77 -14.96,-14.96 -23.19,-38.95 -23.19,-67.56 0,-43.86 25.93,-74.5 63.1,-74.5 17.36,0 35.28,6.12 51.78,17.7l13.83 9.71 0 -58.2 0 -4.42 -6.56 -1.72c-22.83,-5.97 -41.3,-8.75 -58.14,-8.75 -32.25,0 -60.44,11.15 -81.54,32.22 -22.62,22.64 -35.09,55.68 -35.09,93.03 0,37.87 11.76,69.65 34,91.89 22.28,22.28 54.14,34.06 92.16,34.06 19.13,0 36.08,-3.74 50.43,-11.13l2.92 -1.51 17.21 -57.67 -7.51 0z"/>
  <path class="fil0" d="M914.01 728.95l-63.35 -0.13 -77.25 0 0 5.93 5.51 2.22c8.76,3.52 8.54,25.78 8.35,39.15 0,0 -0.02,145.44 -0.02,145.52 0.13,12.06 0.33,36.03 -8.24,39.35l-5.61 2.18 0 5.86 77.25 0 0 -5.74 -5.45 -2.24c-8.73,-3.57 -8.54,-27.43 -8.4,-39.47l0 -47.98 42.26 0c0,0 0.35,0 0.38,0l0.35 -0.04c0.14,-0.03 18.44,-1.48 21.3,6.17l1.26 3.36 5.09 1 3.33 -64.24 -6.38 -0.06 -1.29 4.01c-1.65,5.21 -18.52,6.45 -23.33,6.2l-0.33 -0.02 -42.65 0c-0.02,-20.94 -0.02,-47.66 0.07,-59.11l57.06 0c12.72,0 19.45,3.01 21.77,9.76l1.33 3.86 5.72 0 13.95 -57.11c0,0 -18.34,1.57 -22.7,1.57z"/>
  <path class="fil0" d="M1745.19 728.95l-63.33 -0.13 -77.26 0 0 5.93 5.51 2.22c8.78,3.52 8.54,25.78 8.35,39.15 0,0 -0.01,145.44 -0.01,145.52 0.14,12.06 0.35,36.03 -8.24,39.35l-5.61 2.18 0 5.86 77.26 0 0 -5.74 -5.47 -2.24c-8.72,-3.57 -8.53,-27.43 -8.39,-39.47l0 -47.98 42.28 0c0,0 0.35,0 0.38,0l0.33 -0.04c0.14,-0.03 18.44,-1.48 21.32,6.17l1.25 3.36 5.08 1 3.32 -64.24 -6.37 -0.06 -1.28 4.01c-1.67,5.21 -18.51,6.45 -23.35,6.2l-0.32 -0.02 -42.64 0c-0.03,-20.94 -0.02,-47.66 0.08,-59.11l57.06 0c12.72,0 19.43,3.01 21.75,9.76l1.33 3.86 5.74 0 13.94 -57.11c0,0 -18.33,1.57 -22.71,1.57z"/>
  <path class="fil0" d="M1943.17 910.39c-14.56,11.93 -38.29,18.54 -62.94,18.54 -24.65,0 -35.29,-3.34 -35.29,-3.34 0,-1.33 0.02,-2.67 0.03,-4.03l0 -57.37 35.13 -0.06c0.14,-0.02 18.69,-0.53 21.31,6.19l1.26 3.37 5.47 1.01 3.08 -59.16 -6.37 -0.07 -1.27 4.01c-1.68,5.2 -17.51,6.11 -22.35,5.87l-36.28 -0.02c-0.02,-19.26 0,-43.65 0.08,-54.48l45.29 0c12.72,0 24.44,-0.12 28.22,9.76l1.32 3.86 5.96 0 11.03 -57.11c0,0 -18.26,1.35 -22.63,1.42l-132.67 0 0 5.94 5.51 2.22c8.77,3.52 8.53,25.79 8.35,39.15 0,0 -0.02,145.44 -0.02,145.5 0.13,11.35 0.25,34.63 -7.04,39.31 -2.11,1.35 -6.81,2.08 -6.81,2.14l0 5.93 153.5 0 14.68 -58.61 -6.57 0z"/>
  <path class="fil0" d="M1483.15 897.09l-2.54 2.35c-19.51,18.17 -43.75,26.7 -69.53,26.7 -25.79,0 -36.29,-0.92 -36.29,-0.92 0,0 0,-176.69 0,-186.63 0,-16.55 0,-44.47 14.47,-49.27l5.46 -1.56 0 -6.28 -89.48 0 0 6.28 5.43 1.55c11.68,4.81 11.44,33.13 11.28,49.28 0,0 0,174.07 0,174.13 0.17,16.09 0.4,43.83 -11.11,48.33l-5.6 2.18 0 5.8 159.98 0 25.49 -71.94 -7.56 0z"/>
  <path class="fil1" d="M1022.41 58.93c51,0 100.25,7.59 146.73,21.66 -9.66,6.51 -22.06,14 -38.5,22.33 -59.92,30.37 -67.82,32.82 -94.41,46.17 -16.35,8.2 -29.91,16.99 -40.89,25.22 -0.3,-0.32 -0.49,-0.49 -0.49,-0.49 0,0 -11.18,-14.42 -18.42,-19.63 -7.24,-5.22 -21.09,-8 -25.96,-10.47 -9.52,-4.81 -10.75,-8.11 -24.06,-12.3 -11.67,-3.67 -18.74,-1.67 -26.49,-3.1 -6.06,-1.13 -14.06,-4.49 -23.99,-3.46 -5.6,0.59 -14.43,4.57 -20.72,5.1 -8.06,0.69 -16.19,-2.51 -22.2,-1.45 -6.2,1.1 -14.53,7.81 -24.3,9.65 -6.82,1.28 -14.45,-0.2 -19.49,1.03 -5.04,1.23 -15.63,10.33 -20.74,12.18 -5.1,1.84 -16.78,2.83 -15.96,12.91 0.72,9.09 20.55,11.11 20.55,11.11 0,0 85.41,11.69 166.61,54.15 -11.84,14.58 -23.13,30.99 -33.7,48.27 -6.39,-1.94 -15.08,-4.65 -20.63,-5.22 -8.84,-0.9 -17.93,3.37 -23.39,3.16 -12.04,-0.5 -13.61,-3.23 -27.34,-0.87 -10.41,1.8 -11.41,4.96 -20.53,7.52 -5.9,1.65 -13.55,-0.99 -24.39,2.5 -5.19,1.67 -13.75,10.81 -19.34,13.43 -4.5,2.11 -12.85,2.2 -18.96,6.73 -4.85,3.58 -4.52,8.14 -14.25,14.12 -6.23,3.84 -11.04,2.62 -17.58,8.88 -3.55,3.39 -4.71,9.39 -15.26,17.5 -14.13,10.85 -12,19.49 -10.7,22.71 3.8,9.39 25,0.05 25,0.05 0,0 69.04,-23.52 153.35,-27.91 -21.27,43.54 -40.19,85.67 -50.08,112.9 -2.44,6.73 -4.48,12.54 -6.1,17.25 -1.67,-0.48 -1.28,-0.23 -1.67,-0.48 -5.38,-3.35 -5.39,-10.97 -2.36,-25.76 3.17,-15.45 15.09,-44.85 18.73,-52.68l-4.79 0.01c-4.35,7.47 -16.31,29.63 -19.26,35.89 -3.91,8.31 -5.46,10.7 -14.85,30.32 -1.59,3.32 -7.25,12.94 -12,12.69 -3.68,-0.18 -7.85,-2.69 -7.85,-6.37 0,-1.84 2.65,-5.67 3.61,-7.09 11.86,-17.57 18.65,-35.36 21.13,-42.54l-4.76 0c0,0 -31,70.41 -95.97,70.41 -22.69,0 -45.4,-10.66 -45.4,-10.66 0,0 -30.81,14 -72.87,14 -32.41,0 -52.76,-6.4 -60.4,-9.33 44.54,-237.65 246.67,-420.02 505.36,-420.02zm177.93 13.83c5.72,-3.17 9.65,-6.31 15.14,-7.98 5.67,-1.72 11.06,0.03 16.14,-0.23 4.02,-0.2 11.76,-6.76 15.29,-6.49 4.14,0.31 7.6,1.46 10.43,2.98 3.14,1.67 15.06,-6.57 18.44,-6.42 2.32,0.1 10.18,0.22 8.41,8.82 -1.52,6.87 -6.04,26.72 -15.81,51.39 -3,7.6 -6.51,15.65 -10.58,23.92 -4.53,9.19 -9.74,18.65 -15.74,28.06 -24.85,38.87 -46.67,30.16 -93.65,51.89 -36.05,16.67 -51.22,28.4 -57.24,34.2 -2.63,-1.64 -5.7,-3.58 -9.02,-5.7 6.58,-6.33 21.15,-16.55 52.61,-32.65 32.93,-16.84 87.01,-40.16 98.4,-58.57 0.9,-1.47 -0.07,-2.52 -0.87,-3.59 -12.29,8.28 -23.1,13.96 -28.74,16.82 -53.1,26.91 -71.29,33.56 -94.86,45.39 -11.42,5.74 -27.64,16.18 -39.25,24.28 -3.03,-2.04 -6.09,-4.12 -9.13,-6.26 10.29,-8.13 24.52,-18.24 40.98,-26.5 23.57,-11.83 43.8,-21.76 100.57,-54.78 5.18,-3.02 33.56,-20.5 55.07,-36.15 0.46,-1.88 0.89,-3.69 1.29,-5.44 -19.47,11.25 -82.76,45.04 -95.78,51.62 -53.08,26.91 -50.67,25.02 -74.24,36.85 -15.9,7.99 -30.28,18.17 -40.35,25.33 -3.13,-2.4 -6.04,-4.75 -8.66,-6.98 12.83,-8.51 24.62,-16.86 41.57,-25.87 23.83,-12.66 26.76,-14.98 79.87,-41.85 26.98,-13.65 74.56,-45.39 99.39,-61.24 0.28,-2.1 0.54,-2.81 0.78,-4.65 -26.42,14.61 -101.65,53.83 -114.15,60.16 -53.1,26.9 -59.14,29.07 -82.71,40.9 -13.92,7 -26.94,15.5 -36.11,22.07 -2.17,-2.05 -4.31,-4.09 -6.4,-6.11 8.55,-6.49 22.89,-16.65 43.54,-28.48 23.22,-13.31 27.72,-14.95 80.81,-41.86 4.59,-2.31 30.11,-16.46 55.88,-32.01 7.26,-4.39 15.04,-9.18 21.9,-13.44 4.72,-2.94 9.26,-7.46 13.46,-9.8l-2.67 -1.33c-11.29,4.78 -25.58,12.49 -29.4,14.7 -27.46,15.99 -63.41,31.68 -74.1,37.09 -53.09,26.91 -59.13,29.07 -82.7,40.9 -12.98,6.52 -27.38,16.25 -37.54,23.7 -2.44,-2.39 -4.69,-4.59 -6.69,-6.57 10.86,-8.98 25.51,-19.27 44.31,-28.7 23.57,-11.83 28.67,-14 81.76,-40.91 9.7,-4.91 17.82,-9.52 24.69,-13.74 1.17,0.33 24.5,-12.87 45.63,-26.78zm-28.09 184.23c-1.07,7.07 -5.07,9.74 -8.22,11.23 -3.17,1.49 -8.28,5.33 -9.65,7.45 -0.63,0.98 -1.41,0.54 -1.9,0.07 -0.29,-0.27 -2.74,-1.6 -3.96,-2.67 -0.4,-0.35 -0.68,-0.72 -0.72,-1.06 -0.17,-1.33 0.16,-2.39 0.16,-2.39l0.18 -2.47c0.33,-0.68 0.03,-3.87 0.03,-3.87 0,0 -1.11,-5.39 -0.36,-9.78 0.95,-5.61 6.63,-10.02 6.63,-10.02l2.49 0.85c0,0 -2.83,3.27 -4.54,7.78 -0.88,2.32 -1.49,8.97 0.23,12.86 0.24,0.58 0.19,3.31 0.19,3.31l1.39 1.22c0,0 1.74,-1.15 2.3,-1.61 3.37,-2.77 4.8,-3.79 4.8,-3.79 0,0 -5.2,-3.52 -2.68,-8.64 2.42,-4.94 8.04,-3.34 8.04,-3.34 1.72,-5.86 0.83,-11.89 0.83,-11.89l3.5 1.15c0,0 2.5,7.61 1.26,15.59zm-61.07 84.16c-10.57,-0.06 -25.49,-4.57 -30.75,-12.7 1.35,15.28 19.18,27.5 35.36,28.6l0 0.99c-3.43,1.02 -7.09,1.56 -10.89,1.54 -20.48,-0.14 -37.1,-16.46 -37.1,-36.45 0,-2.44 0.5,-6.06 1.02,-8.64 14.89,12.04 48.86,29.43 67.13,4.17l0.66 1.66c-4.03,11.04 -13.02,20.92 -25.43,20.83zm-143.06 145.21c-1.85,0.2 -1.22,0.43 -3.17,0.61 7.78,-32.85 27.61,-112.74 76.21,-194.51 6.71,4.95 12.05,9.13 16.08,12.36 -35.17,54.23 -72.22,123.21 -89.13,181.54zm-41.75 1.36c-1.79,-0.11 -1.03,-0.24 -2.8,-0.42 8.43,-35.09 31.9,-125.8 89.41,-214.54 5.78,3.83 11.12,7.49 15.98,10.91 -39.3,56.93 -83.76,137.6 -102.59,204.05zm-42.43 -11.33c11.41,-43.7 38.47,-135.94 99.31,-222.38 5.95,3.56 11.61,7.06 16.94,10.46 -40.54,54.52 -90.97,141.53 -113.48,214.1 -1.8,-0.72 -1.04,-1.43 -2.77,-2.18zm-34.56 -16.05c-1.55,-0.94 -0.45,-1.81 -1.79,-2.65 14.52,-47.73 49.28,-145.31 105.82,-220.78 5.72,3.12 11.23,6.21 16.52,9.26 -39.09,47.85 -92.88,136.72 -120.55,214.17zm696.12 110.17c-0.08,-5.13 -0.22,-10.26 -0.46,-15.35 -2.72,0.13 -143.06,9.69 -212.32,9.69 -90.74,0 -221.19,-1.41 -221.19,-1.41l-603.08 -5.97c0.07,-1.45 0.36,-11.17 0.44,-12.63l601.99 -1.99c0,0 131.11,1.52 221.84,1.52 68.8,0 208.82,-0.54 211.6,-0.45 -0.5,-7.54 -1.17,-17.89 -1.97,-25.35 -2.83,0.16 -141.92,11.04 -209.63,11.04 -90.74,0 -221.19,-5.79 -221.19,-5.79l-154.61 0.44 -204.13 -6.02 -241.37 -2.16c0.23,-2 1.52,-11.68 1.77,-13.68 8.37,1.26 16.23,4.11 45.33,4.11 38.28,0 57.3,-9.14 57.3,-9.14 0,0 27.78,8.18 66.07,8.18 17.95,0 56.71,-18.2 80.82,-10.98 38.61,11.59 53.88,-5.81 53.88,-5.81 0,0 8.98,11.81 25.38,15.24 13.89,2.9 29.46,-6.52 29.46,-6.52 0,0 21.73,15.83 84.12,15.44 76.58,-0.46 97.4,-40.25 97.4,-40.25l2.76 0c0,0 -2.81,10.87 1.59,20.44 7.88,17.18 32.13,19.56 32.13,19.56 -2.83,-48.22 18.32,-79.7 18.32,-79.7l2.83 0c0,0 0,0 -2.58,10.24 -8.68,34.5 6.35,66.2 6.35,66.2l7.46 -3.83c0,0 -6.81,-22.13 0.43,-52.44 7.22,-30.31 17.3,-45.81 17.3,-45.81l3.66 0c0,0 -7.56,23.5 -7.35,42.17 0.18,15.54 8.41,51.52 38.07,62.24 22.68,8.19 38.28,-10.24 38.28,-10.24 0,0 47.57,12.13 87.92,12.13 93.59,0 114.62,-15.72 114.62,-15.72 0,0 6.2,11.26 54.09,11.26 27.93,0 49.2,-1.91 62.11,-3.5 4.07,-0.52 7.33,-0.98 9.67,-1.35 -1.07,-7.96 -2.32,-15.88 -3.74,-23.72 -26.44,-146.42 -111.29,-272.5 -229.56,-353.27l-6.85 19.15c115.46,76.67 199.22,196.26 225.11,337.69 -13.4,4.63 -32.25,9.95 -56.75,9.95 -36.78,0 -45.59,-11.69 -45.59,-11.69 0,0 -13.36,9.45 -37.57,9.45 -20.81,0 -37.76,-15.13 -37.76,-15.13 0,0 -22.72,20.8 -59.92,20.8 -46.39,0 -69.82,-28.9 -77.82,-41.59 -8.11,-12.83 -12.67,-23.48 -12.67,-23.48l-3.75 0c0.98,5.13 2.04,11.06 4.44,17.44 6.29,16.75 9.98,22.39 12.35,26.79 1.29,2.41 4.35,8.87 -2.21,10.79 -3.83,1.12 -6.9,-1.47 -8.1,-3.57 -2.51,-3.39 -10.65,-15.22 -16.28,-33.28 -6,-19.13 -7.46,-33.33 -8.41,-43.33l-2.87 0c-1.35,9.71 -2.79,22.94 -1.64,40.88 1.28,19.64 6.76,33.39 8.15,36.62 0.21,0.48 1.37,2.93 1.56,4.4 0.72,5.97 -4,9.11 -8.96,8 -4.3,-0.96 -7.96,-5.1 -10.25,-8.96 -19.9,-33.46 4.24,-96.9 11.87,-118.45 10.41,-29.31 13.61,-56.31 13.61,-56.31 0,0 13.43,-22 20.67,-36.65 9.19,-18.65 15.78,-36.86 21.89,-42.98 9.46,-9.46 23.2,-31.42 38.53,-59.21 2.94,-5.33 15.86,-33.74 18.36,-40.89 1.82,-5.17 4.44,-10.67 6.02,-16.24 7.53,-26.88 12,-55.64 12.33,-60.08 0.5,-6.63 -11.63,-11.32 -11.63,-11.32 0,0 -9.97,-3.82 -17.18,-3.81 -3.76,0.01 -9.07,3.99 -13.53,6.03 -5.86,2.69 -8.75,0.92 -8.75,0.92 0,0 -8.87,-3.57 -13.64,-2.61 -4.06,0.8 -8.75,6 -12.42,7.54 -6.5,2.76 -8.15,1.35 -8.15,1.35 0,0 -7.51,-2.06 -12.94,-0.25 -4.92,1.64 -9.71,4.13 -17.93,10.79 -58.81,-21.68 -122.37,-33.52 -188.69,-33.52 -298.45,0 -540.94,239.64 -545.55,537 -0.04,2.82 -0.06,15.11 -0.06,15.11l1091.22 0c0,0 -0.02,-11.35 -0.07,-14.19z"/>
 </g>
</svg>
